<svg width="20" height="20" viewBox="0 0 20 20" fill="none" xmlns="http://www.w3.org/2000/svg">
<path d="M10.8179 9.20269C10.8179 9.09871 10.8179 9.02072 10.8179 8.94273C10.8179 7.04869 10.8179 5.15465 10.8179 3.26432C10.8179 2.51413 11.2996 2.01277 12.0483 2.00905C13.2527 2.00163 14.4572 2.00534 15.6616 2.01277C16.0989 2.01277 16.5362 2.02019 16.9735 2.04248C17.4813 2.06105 17.9667 2.53641 17.9742 3.07863C17.9853 4.0665 17.9927 5.05809 17.9964 6.04596C17.9964 6.66616 17.9667 7.28266 17.9927 7.90286C18.0186 8.5862 17.5813 9.21012 16.6659 9.20269C15.0983 9.19155 13.5307 9.20269 11.963 9.20269C11.5887 9.20269 11.2181 9.20269 10.8179 9.20269ZM14.4053 6.15737V6.15366C15.0835 6.15366 15.7617 6.15366 16.4399 6.15366C16.7401 6.15366 16.9513 5.96426 16.9698 5.69686C16.9847 5.43318 16.7845 5.22149 16.488 5.19178C16.4028 5.18436 16.3176 5.17693 16.2286 5.17693C15.1168 5.18064 14.0087 5.18807 12.8969 5.19178C12.6931 5.19178 12.4893 5.18807 12.2854 5.1955C12.0371 5.20664 11.863 5.38862 11.8518 5.63744C11.837 5.94569 12.0371 6.15366 12.367 6.15366C13.0489 6.16109 13.7271 6.15737 14.4053 6.15737Z" fill="white" fill-opacity="0.6"/>
<path d="M14.4048 6.15739C13.7266 6.15739 13.0484 6.16111 12.3702 6.15739C12.0403 6.15368 11.8402 5.94571 11.855 5.64118C11.8661 5.39235 12.0403 5.21037 12.2886 5.19923C12.4925 5.18809 12.6963 5.19552 12.9001 5.19552C14.0119 5.18809 15.12 5.18438 16.2318 5.18066C16.3171 5.18066 16.406 5.18809 16.4912 5.19552C16.7877 5.22152 16.9878 5.4332 16.973 5.7006C16.9582 5.9717 16.7432 6.15739 16.4431 6.15739C15.7649 6.16111 15.0867 6.15739 14.4085 6.15739C14.4048 6.15368 14.4048 6.15739 14.4048 6.15739Z" fill="white"/>
<path d="M10.8387 10.854C10.9129 10.854 10.9722 10.854 11.0315 10.854C12.9475 10.854 14.8598 10.8502 16.7758 10.8577C17.4391 10.8614 17.9469 11.2773 17.9876 11.983C18.0062 12.3543 17.9987 12.7257 17.9987 13.0971C17.9987 14.3152 17.9987 15.5371 17.9987 16.7552C17.9987 17.5574 17.5096 18.0476 16.7053 18.0476C15.1785 18.0476 13.6553 18.0476 12.1284 18.0476C11.7134 18.0476 11.3242 17.951 11.087 17.5834C10.961 17.3903 10.8424 17.1451 10.8387 16.9223C10.8202 14.9354 10.8276 12.9485 10.8276 10.9617C10.8313 10.9357 10.835 10.9097 10.8387 10.854ZM14.441 13.9698C13.7517 13.9698 13.0586 13.9698 12.3693 13.9698C12.0728 13.9698 11.8653 14.1592 11.8616 14.4341C11.8579 14.7349 12.0469 14.928 12.3582 14.928C13.7405 14.9317 15.1229 14.928 16.5052 14.928C16.7572 14.928 16.9759 14.7015 16.9759 14.4563C16.9759 14.1852 16.7758 13.9698 16.5163 13.9698C15.8233 13.9698 15.1303 13.9698 14.441 13.9698ZM14.4113 15.5668C13.8999 15.5593 13.6812 15.9642 13.659 16.3615C13.6405 16.7069 14.0518 17.0226 14.4447 17.0152C14.8264 17.0077 15.1822 16.6475 15.1525 16.2613C15.1192 15.849 14.8042 15.5408 14.4113 15.5668ZM14.4187 11.957C14.0481 11.9161 13.6924 12.2763 13.6812 12.6514C13.6701 13.0897 14.0074 13.3942 14.3891 13.4128C14.8301 13.4313 15.134 13.0414 15.1451 12.7294C15.1562 12.2912 14.8449 11.9384 14.4187 11.957Z" fill="white" fill-opacity="0.6"/>
<path d="M14.4403 13.9703C15.1296 13.9703 15.8227 13.9703 16.512 13.9703C16.7714 13.9703 16.9715 14.1857 16.9715 14.4568C16.9715 14.702 16.7529 14.9285 16.5009 14.9285C15.1185 14.9322 13.7362 14.9322 12.3538 14.9285C12.0425 14.9285 11.8535 14.7354 11.8572 14.4346C11.8609 14.1597 12.0648 13.9703 12.365 13.9703C13.058 13.9703 13.7473 13.9703 14.4403 13.9703Z" fill="white"/>
<path d="M14.4109 15.5673C14.8037 15.5413 15.1187 15.8533 15.1521 16.2618C15.1817 16.648 14.8296 17.012 14.4442 17.0157C14.0514 17.0231 13.64 16.7037 13.6585 16.3621C13.6808 15.9647 13.8994 15.5599 14.4109 15.5673Z" fill="white"/>
<path d="M14.4177 11.9573C14.8439 11.9387 15.1589 12.2952 15.1441 12.726C15.1329 13.0417 14.8328 13.4317 14.388 13.4094C14.0063 13.3908 13.6691 13.0863 13.6802 12.648C13.6876 12.2767 14.0471 11.9164 14.4177 11.9573Z" fill="white"/>
<path d="M9.16381 10.8617C9.16751 10.9285 9.17492 10.9842 9.17492 11.04C9.17863 12.9266 9.18234 14.8169 9.18234 16.7035C9.18234 17.5688 8.70797 18.0516 7.84076 18.0553C6.41395 18.0628 4.98713 18.0553 3.56032 18.0516C3.35278 18.0516 3.13784 18.0405 2.93401 18.0033C2.42258 17.9105 2.11498 17.5837 2.03715 17.0749C2.01492 16.9226 2.00009 16.7666 2.00009 16.6144C2.00009 15.1623 2.00009 13.7139 2.0038 12.2655C2.0038 12.091 2.01121 11.9164 2.04456 11.7493C2.12239 11.3259 2.50781 10.9545 2.93771 10.8914C3.14895 10.8617 3.36761 10.858 3.58256 10.858C5.3985 10.8543 7.21445 10.858 9.03039 10.858C9.06745 10.8543 9.10451 10.858 9.16381 10.8617ZM5.49486 15.1251C5.9507 15.5634 6.35095 15.9459 6.7549 16.3321C6.77343 16.347 6.79196 16.3693 6.81049 16.3767C7.00691 16.4547 7.29968 16.3693 7.42939 16.1984C7.57022 16.009 7.55911 15.7899 7.37751 15.5894C7.1848 15.3814 6.97726 15.1846 6.78084 14.984C6.60666 14.8095 6.43618 14.6312 6.22124 14.4121C6.59925 14.0518 6.96985 13.7139 7.32192 13.3574C7.42569 13.2534 7.53316 13.0937 7.52946 12.96C7.52204 12.7334 7.35527 12.5515 7.14403 12.4883C7.02915 12.4549 6.84755 12.5218 6.74378 12.6072C6.51772 12.7966 6.31389 13.0157 6.11376 13.2311C5.94699 13.4094 5.79134 13.6025 5.63198 13.7919C5.51339 13.6916 5.44668 13.6545 5.3985 13.6025C5.10573 13.3017 4.82407 12.9934 4.52388 12.7C4.43123 12.6109 4.30523 12.5478 4.18293 12.5069C4.00875 12.4512 3.74933 12.5923 3.67521 12.7557C3.58997 12.9488 3.65297 13.2237 3.78268 13.3462C4.15328 13.6953 4.51647 14.0593 4.89078 14.4232C4.79813 14.5346 4.74254 14.6126 4.67212 14.6832C4.37194 14.984 4.06434 15.2811 3.76415 15.5856C3.70115 15.6525 3.64556 15.7491 3.63444 15.8382C3.6085 16.0462 3.6715 16.2318 3.86792 16.3433C4.05322 16.4472 4.23482 16.4027 4.38306 16.2764C4.57947 16.1093 4.76107 15.9236 4.94266 15.7379C5.13538 15.5299 5.32438 15.3108 5.49486 15.1251Z" fill="white" fill-opacity="0.6"/>
<path d="M5.49458 15.125C5.3278 15.3106 5.1388 15.5298 4.93867 15.7377C4.76079 15.9234 4.57548 16.1091 4.37907 16.2762C4.23083 16.4025 4.04923 16.4471 3.86393 16.3431C3.66751 16.2317 3.60451 16.046 3.63045 15.838C3.64157 15.7489 3.69716 15.6523 3.76016 15.5855C4.05664 15.2809 4.36424 14.9838 4.66813 14.683C4.73855 14.6124 4.79414 14.5345 4.88679 14.423C4.51248 14.0591 4.153 13.6951 3.77869 13.346C3.64898 13.2235 3.58227 12.9487 3.67122 12.7555C3.74534 12.5884 4.00476 12.4473 4.17894 12.5067C4.30124 12.5476 4.43095 12.6107 4.51989 12.6998C4.82008 12.9932 5.10174 13.3015 5.39451 13.6023C5.4464 13.6543 5.51311 13.6914 5.62799 13.7917C5.78735 13.606 5.943 13.4129 6.10977 13.2309C6.3136 13.0155 6.51373 12.7927 6.73979 12.607C6.83986 12.5216 7.02516 12.4547 7.14004 12.4881C7.34758 12.5513 7.51806 12.737 7.52547 12.9598C7.52917 13.0898 7.4217 13.2532 7.31793 13.3572C6.96586 13.7137 6.59897 14.0517 6.21725 14.4119C6.4322 14.6347 6.60267 14.8093 6.77685 14.9838C6.97698 15.1881 7.18451 15.3812 7.37352 15.5892C7.55512 15.786 7.56623 16.0088 7.42541 16.1982C7.2994 16.3691 7.00663 16.4545 6.8065 16.3765C6.78427 16.3691 6.76574 16.3505 6.75091 16.3319C6.35066 15.9457 5.95041 15.5632 5.49458 15.125Z" fill="white"/>
<path d="M9.16386 9.20292C9.09344 9.20292 9.03785 9.20292 8.98226 9.20292C7.10702 9.20292 5.22808 9.20292 3.35283 9.20292C2.91553 9.20292 2.52269 9.10265 2.24474 8.72756C2.07797 8.50102 2.00385 8.24476 2.00385 7.96994C2.00014 6.37672 2.00014 4.78721 2.00385 3.19399C2.00385 2.53664 2.51898 2.00928 3.17495 2.00557C4.76853 1.99814 6.36211 1.99814 7.95199 2.00557C8.39301 2.00928 8.78955 2.16898 8.98968 2.58121C9.10456 2.81518 9.16386 3.10114 9.16386 3.36482C9.17868 5.25886 9.17127 7.1529 9.17127 9.04323C9.17498 9.09151 9.16756 9.13236 9.16386 9.20292ZM5.07613 5.19202C4.9946 5.19202 4.9353 5.19202 4.8723 5.19202C4.42017 5.19202 3.97174 5.19202 3.51961 5.19573C3.43437 5.19573 3.34542 5.21058 3.2713 5.24401C3.09712 5.322 2.98223 5.5374 3.00447 5.71195C3.03412 5.94592 3.16753 6.11304 3.40472 6.13161C3.74197 6.1576 4.08292 6.15018 4.42017 6.15389C4.63511 6.1576 4.84636 6.15389 5.07613 6.15389C5.07613 6.24674 5.07613 6.31358 5.07613 6.38043C5.07613 6.83352 5.07242 7.28289 5.07613 7.73597C5.07613 8.02193 5.27996 8.23362 5.5542 8.23734C5.82104 8.24105 6.03599 8.01822 6.03599 7.73597C6.03599 7.27917 6.03599 6.82238 6.03599 6.36186C6.03599 6.29502 6.03599 6.23188 6.03599 6.15389C6.12864 6.15389 6.19534 6.15389 6.26205 6.15389C6.7253 6.15389 7.18855 6.15389 7.65181 6.15389C7.88899 6.15389 8.11135 5.93106 8.11506 5.69709C8.11876 5.38513 7.92605 5.19202 7.61475 5.19202C7.15891 5.19202 6.70307 5.19202 6.24352 5.19202C6.17681 5.19202 6.11381 5.19202 6.05452 5.19202C6.0434 5.15488 6.03969 5.14002 6.03969 5.12888C6.03969 4.62009 6.03969 4.11501 6.03969 3.60622C6.03969 3.32026 5.83957 3.11228 5.56162 3.10857C5.28367 3.10857 5.07984 3.31283 5.07984 3.60251C5.07613 4.12615 5.07613 4.64237 5.07613 5.19202Z" fill="white" fill-opacity="0.6"/>
<path d="M5.07648 5.19216C5.07648 4.64251 5.07648 4.1263 5.07648 3.60636C5.07648 3.3204 5.28031 3.11243 5.55826 3.11243C5.83621 3.11243 6.03634 3.3204 6.03634 3.61008C6.03634 4.11887 6.03634 4.62395 6.03634 5.13274C6.03634 5.14388 6.04004 5.15502 6.05116 5.19587C6.11046 5.19587 6.17346 5.19587 6.24017 5.19587C6.69601 5.19587 7.15184 5.19587 7.61139 5.19587C7.92269 5.19587 8.11541 5.38899 8.1117 5.70095C8.108 5.93492 7.88934 6.15775 7.64845 6.15775C7.1852 6.15775 6.72195 6.15775 6.2587 6.15775C6.19199 6.15775 6.12528 6.15775 6.03263 6.15775C6.03263 6.23574 6.03263 6.30259 6.03263 6.36572C6.03263 6.82252 6.03263 7.27932 6.03263 7.73983C6.03263 8.01836 5.81768 8.24119 5.55085 8.24119C5.2766 8.23748 5.07277 8.02579 5.07277 7.73983C5.07277 7.28674 5.07277 6.83737 5.07277 6.38429C5.07277 6.31744 5.07277 6.25059 5.07277 6.15775C4.843 6.15775 4.63176 6.16146 4.41681 6.15775C4.07956 6.15403 3.73861 6.16146 3.40136 6.13546C3.16789 6.11689 3.03076 5.94977 3.00111 5.7158C2.97888 5.54125 3.09376 5.32585 3.26795 5.24786C3.34207 5.21444 3.43472 5.19958 3.51625 5.19958C3.96838 5.19587 4.41681 5.19587 4.86894 5.19587C4.93565 5.19216 4.99495 5.19216 5.07648 5.19216Z" fill="white"/>
</svg>
