<svg width="30" height="30" viewBox="0 0 30 30" fill="none" xmlns="http://www.w3.org/2000/svg">
<path d="M15 26.25C13.5226 26.25 12.0597 25.959 10.6948 25.3936C9.3299 24.8283 8.08971 23.9996 7.04505 22.955C6.00039 21.9103 5.17172 20.6701 4.60635 19.3052C4.04099 17.9403 3.75 16.4774 3.75 15C3.75 13.5226 4.04099 12.0597 4.60636 10.6948C5.17172 9.3299 6.00039 8.08971 7.04505 7.04505C8.08971 6.00039 9.3299 5.17172 10.6948 4.60635C12.0597 4.04099 13.5226 3.75 15 3.75C16.4774 3.75 17.9403 4.04099 19.3052 4.60636C20.6701 5.17172 21.9103 6.00039 22.955 7.04505C23.9996 8.08971 24.8283 9.3299 25.3936 10.6948C25.959 12.0597 26.25 13.5226 26.25 15C26.25 16.4774 25.959 17.9403 25.3936 19.3052C24.8283 20.6701 23.9996 21.9103 22.9549 22.955C21.9103 23.9996 20.6701 24.8283 19.3052 25.3936C17.9403 25.959 16.4774 26.25 15 26.25L15 26.25Z" stroke="white" stroke-opacity="0.5" stroke-width="1.6"/>
<path fill-rule="evenodd" clip-rule="evenodd" d="M18.1843 10.6843C18.4967 10.3718 19.0033 10.3718 19.3157 10.6843C19.6281 10.9967 19.6281 11.5032 19.3157 11.8156L16.1314 15L19.3157 18.1843C19.6281 18.4967 19.6281 19.0032 19.3157 19.3156C19.0033 19.6281 18.4967 19.6281 18.1843 19.3156L15 16.1313L11.8157 19.3156C11.5033 19.6281 10.9967 19.6281 10.6843 19.3156C10.3719 19.0032 10.3719 18.4967 10.6843 18.1843L13.8686 15L10.6843 11.8156C10.3719 11.5032 10.3719 10.9967 10.6843 10.6843C10.9967 10.3718 11.5033 10.3718 11.8157 10.6843L15 13.8686L18.1843 10.6843Z" fill="white" fill-opacity="0.5"/>
</svg>
