<svg width="35" height="36" viewBox="0 0 35 36" fill="none" xmlns="http://www.w3.org/2000/svg">
<ellipse cx="17.3461" cy="18" rx="17.3077" ry="18" fill="#85FF83" fill-opacity="0.1"/>
<g filter="url(#filter0_dd_367_339)">
<path fill-rule="evenodd" clip-rule="evenodd" d="M17.3462 28C22.6566 28 26.9615 23.5228 26.9615 18C26.9615 12.4772 22.6566 8 17.3462 8C12.0357 8 7.73077 12.4772 7.73077 18C7.73077 23.5228 12.0357 28 17.3462 28Z" fill="#85FF83"/>
<path d="M25.9615 18C25.9615 23.0079 22.0677 27 17.3462 27C12.6246 27 8.73077 23.0079 8.73077 18C8.73077 12.9921 12.6246 9 17.3462 9C22.0677 9 25.9615 12.9921 25.9615 18Z" stroke="white" stroke-width="2"/>
</g>
<defs>
<filter id="filter0_dd_367_339" x="3.73077" y="5" width="27.2308" height="28" filterUnits="userSpaceOnUse" color-interpolation-filters="sRGB">
<feFlood flood-opacity="0" result="BackgroundImageFix"/>
<feColorMatrix in="SourceAlpha" type="matrix" values="0 0 0 0 0 0 0 0 0 0 0 0 0 0 0 0 0 0 127 0" result="hardAlpha"/>
<feMorphology radius="1" operator="dilate" in="SourceAlpha" result="effect1_dropShadow_367_339"/>
<feOffset dy="1"/>
<feGaussianBlur stdDeviation="1.5"/>
<feColorMatrix type="matrix" values="0 0 0 0 0 0 0 0 0 0 0 0 0 0 0 0 0 0 0.15 0"/>
<feBlend mode="normal" in2="BackgroundImageFix" result="effect1_dropShadow_367_339"/>
<feColorMatrix in="SourceAlpha" type="matrix" values="0 0 0 0 0 0 0 0 0 0 0 0 0 0 0 0 0 0 127 0" result="hardAlpha"/>
<feOffset dy="1"/>
<feGaussianBlur stdDeviation="1"/>
<feColorMatrix type="matrix" values="0 0 0 0 0 0 0 0 0 0 0 0 0 0 0 0 0 0 0.3 0"/>
<feBlend mode="normal" in2="effect1_dropShadow_367_339" result="effect2_dropShadow_367_339"/>
<feBlend mode="normal" in="SourceGraphic" in2="effect2_dropShadow_367_339" result="shape"/>
</filter>
</defs>
</svg>
