<svg width="24" height="25" viewBox="0 0 24 25" fill="none" xmlns="http://www.w3.org/2000/svg">
<path d="M19.9231 4V3H20.9231V4H19.9231ZM11.9901 13.6931C11.6073 14.0912 10.9742 14.1036 10.5761 13.7208C10.178 13.338 10.1656 12.705 10.5484 12.3069L11.9901 13.6931ZM18.9231 11.2V4H20.9231V11.2H18.9231ZM19.9231 5H13V3H19.9231V5ZM20.6439 4.69311L11.9901 13.6931L10.5484 12.3069L19.2023 3.30689L20.6439 4.69311Z" fill="white" fill-opacity="0.5"/>
<path d="M18.9615 14.625V14.625C18.9615 15.9056 18.9615 16.5459 18.7693 17.0568C18.465 17.8653 17.8268 18.5034 17.0183 18.8077C16.5074 19 15.8671 19 14.5865 19H11.5C8.67158 19 7.25737 19 6.37869 18.1213C5.50001 17.2426 5.50001 15.8284 5.50001 13V9.20673C5.50001 8.08367 5.50001 7.52214 5.64848 7.06792C5.94568 6.15868 6.65868 5.44567 7.56793 5.14847C8.02215 5 8.58368 5 9.70674 5V5" stroke="white" stroke-opacity="0.5" stroke-width="2" stroke-linecap="round"/>
</svg>
