<svg width="16" height="18" viewBox="0 0 16 18" fill="none" xmlns="http://www.w3.org/2000/svg">
<g clip-path="url(#clip0_367_260)">
<path d="M13.3025 0C13.5179 0.0574621 13.7334 0.0933759 13.9417 0.172386C15.091 0.588986 15.8308 1.76696 15.6871 2.96648C15.5363 4.2091 14.5882 5.18595 13.3599 5.34397C12.7278 5.42299 12.1389 5.2937 11.6001 4.94174C11.478 4.86273 11.399 4.86273 11.2769 4.94174C9.34476 6.1269 7.4126 7.31205 5.48043 8.49002C5.36551 8.56185 5.32241 8.6265 5.34396 8.77015C5.37269 8.94254 5.36551 9.12211 5.34396 9.29449C5.3296 9.40942 5.35833 9.4597 5.4517 9.51716C7.40542 10.7095 9.35913 11.9018 11.3128 13.1014C11.4349 13.1804 11.5068 13.1373 11.6073 13.0798C12.4621 12.5555 13.3527 12.5124 14.2506 12.9505C15.2993 13.4677 15.8667 14.6385 15.6656 15.838C15.4788 16.9298 14.5235 17.842 13.4102 17.9856C11.8875 18.1868 10.5515 17.1596 10.3647 15.6441C10.3432 15.4573 10.3432 15.2562 10.3719 15.0694C10.3934 14.933 10.3432 14.8827 10.2426 14.8252C9.12928 14.15 8.01595 13.4677 6.90262 12.7853C6.0766 12.2753 5.2434 11.7725 4.41739 11.2626C4.30964 11.1979 4.23782 11.1979 4.13726 11.2626C2.52832 12.2682 0.509964 11.435 0.0789983 9.58899C-0.265774 8.11652 0.768543 6.60096 2.26974 6.37829C2.92337 6.25619 3.54109 6.38547 4.10853 6.7518C4.23063 6.83081 4.31683 6.82362 4.43893 6.74461C6.36391 5.55946 8.29608 4.38148 10.2211 3.20351C10.3432 3.13168 10.3791 3.06704 10.3647 2.9162C10.2139 1.54429 11.2195 0.244214 12.5842 0.028731C12.6201 0.028731 13.1085 0 13.3025 0Z" fill="white" fill-opacity="0.3"/>
</g>
<defs>
<clipPath id="clip0_367_260">
<rect width="15.7087" height="18" fill="white"/>
</clipPath>
</defs>
</svg>
