<svg width="24" height="24" viewBox="0 0 24 24" fill="none" xmlns="http://www.w3.org/2000/svg">
<rect x="24" width="24" height="24" rx="12" transform="rotate(90 24 0)" fill="white" fill-opacity="0.1"/>
<path d="M7 8.5L6.43431 7.93431L5.86863 8.5L6.43431 9.06569L7 8.5ZM16.2 9.75C16.2 10.1918 16.5582 10.55 17 10.55C17.4418 10.55 17.8 10.1918 17.8 9.75H16.2ZM8.93431 5.43431L6.43431 7.93431L7.56569 9.06569L10.0657 6.56569L8.93431 5.43431ZM6.43431 9.06569L8.93431 11.5657L10.0657 10.4343L7.56569 7.93431L6.43431 9.06569ZM7 9.3H15.75V7.7H7V9.3ZM15.75 9.3C15.9985 9.3 16.2 9.50147 16.2 9.75H17.8C17.8 8.61782 16.8822 7.7 15.75 7.7V9.3Z" fill="white"/>
<path d="M17 15.5L17.5826 14.9517L18.0986 15.5L17.5826 16.0483L17 15.5ZM8.25 15.5L8.25 16.3L8.25 15.5ZM6.2 14.25C6.2 13.8082 6.55817 13.45 7 13.45C7.44183 13.45 7.8 13.8082 7.8 14.25L6.2 14.25ZM15.2296 12.4517L17.5826 14.9517L16.4174 16.0483L14.0645 13.5483L15.2296 12.4517ZM17.5826 16.0483L15.2296 18.5483L14.0645 17.4517L16.4174 14.9517L17.5826 16.0483ZM17 16.3L8.25 16.3L8.25 14.7L17 14.7L17 16.3ZM8.25 16.3C7.11782 16.3 6.2 15.3822 6.2 14.25L7.8 14.25C7.8 14.4985 8.00147 14.7 8.25 14.7L8.25 16.3Z" fill="white"/>
</svg>
