<svg width="20" height="20" viewBox="0 0 20 20" fill="none" xmlns="http://www.w3.org/2000/svg">
<path d="M10 6.5C10 6.2594 10 6.13909 10.0846 6.06445C10.1692 5.98981 10.279 6.00361 10.4987 6.03121C11.0261 6.09748 11.5368 6.26845 12 6.5359C12.6081 6.88697 13.113 7.39192 13.4641 8C13.8152 8.60808 14 9.29785 14 10C14 10.7021 13.8152 11.3919 13.4641 12C13.113 12.6081 12.6081 13.113 12 13.4641C11.3919 13.8152 10.7021 14 10 14C9.29785 14 8.60808 13.8152 8 13.4641C7.53677 13.1967 7.13338 12.8399 6.81228 12.4163C6.67855 12.2399 6.61168 12.1516 6.63402 12.041C6.65636 11.9305 6.76054 11.8703 6.96891 11.75L9.75 10.1443C9.87201 10.0739 9.93301 10.0387 9.96651 9.98066C10 9.92265 10 9.85221 10 9.71132V6.5Z" fill="white"/>
<circle cx="10" cy="10" r="7.75" stroke="white" stroke-width="1.5"/>
</svg>
