<svg width="20" height="20" viewBox="0 0 20 20" fill="none" xmlns="http://www.w3.org/2000/svg">
<path d="M1.66666 6.66671L0.959557 5.9596L0.252451 6.66671L0.959557 7.37381L1.66666 6.66671ZM17.5 7.66671C18.0523 7.66671 18.5 7.21899 18.5 6.66671C18.5 6.11442 18.0523 5.66671 17.5 5.66671V7.66671ZM4.29289 2.62627L0.959557 5.9596L2.37377 7.37381L5.7071 4.04048L4.29289 2.62627ZM0.959557 7.37381L4.29289 10.7071L5.7071 9.29293L2.37377 5.9596L0.959557 7.37381ZM1.66666 7.66671H17.5V5.66671H1.66666V7.66671Z" fill="white"/>
<path d="M18.3333 13.3333L19.0404 12.6262L19.7475 13.3333L19.0404 14.0404L18.3333 13.3333ZM10.8333 14.3333C10.2811 14.3333 9.83334 13.8856 9.83334 13.3333C9.83334 12.781 10.2811 12.3333 10.8333 12.3333L10.8333 14.3333ZM15.7071 9.29289L19.0404 12.6262L17.6262 14.0404L14.2929 10.7071L15.7071 9.29289ZM19.0404 14.0404L15.7071 17.3738L14.2929 15.9596L17.6262 12.6262L19.0404 14.0404ZM18.3333 14.3333L10.8333 14.3333L10.8333 12.3333L18.3333 12.3333L18.3333 14.3333Z" fill="white"/>
</svg>
